<svg width="93" height="23" viewBox="0 0 93 23" fill="none" xmlns="http://www.w3.org/2000/svg">
<path d="M21.842 21.4715H16.6842L15.1063 17.5251H6.51035L5.0728 21.4715H0L7.75004 1.54007H13.3023L21.842 21.4715ZM10.5968 6.30275L7.77852 14.047H13.6972L10.5968 6.30275ZM40.5778 1.54007H44.7488V21.4715H39.9571V9.02174L34.7714 15.2752H34.0389L28.8536 9.02174V21.4713H24.0619V1.54007H28.2329L34.4049 8.93374L40.5778 1.54007ZM56.8898 1.54007C63.9072 1.54007 67.514 6.06926 67.514 11.5342C67.514 17.2621 64.0198 21.4715 56.354 21.4715H48.4062V1.54007H56.8898ZM53.1975 17.8184H56.3253C61.1447 17.8184 62.5823 14.4276 62.5823 11.5047C62.5823 8.08511 60.8064 5.19267 56.269 5.19267H53.1974V17.8184H53.1975ZM77.0469 6.26599L71.0052 0H93V22.8081L86.9583 16.5428V6.26599H77.0469ZM77.0398 7.52157L70.8195 13.9714V23H79.5253L85.7453 16.5502H77.0398V7.52157Z" fill="#BD00FF"/>
</svg>
