<svg width="75" height="75" viewBox="0 0 75 75" fill="none" xmlns="http://www.w3.org/2000/svg">
<path fill-rule="evenodd" clip-rule="evenodd" d="M3.48837 37.5C3.48837 18.4454 18.7151 3 37.5 3C56.2849 3 71.5116 18.4454 71.5116 37.5V47.383C71.9062 47.2415 72.3285 47.198 72.7431 47.2564C73.1576 47.3147 73.5523 47.473 73.8941 47.7181C74.2358 47.9632 74.5146 48.2878 74.707 48.6648C74.8995 49.0418 74.9999 49.4601 75 49.8847V56.9616C74.9999 57.3887 74.8982 57.8094 74.7035 58.188C74.5088 58.5666 74.2269 58.892 73.8818 59.1365C73.5366 59.3811 73.1384 59.5375 72.7209 59.5925C72.3034 59.6476 71.879 59.5996 71.4837 59.4527C71.4628 60.1604 71.4314 60.8185 71.3791 61.4165C71.2395 62.9558 70.9326 64.3747 70.1826 65.7052C69.6837 66.5898 69.0558 67.393 68.3163 68.083C67.2 69.1269 65.9023 69.7213 64.4686 70.1636C63.1151 70.5776 61.4302 70.9173 59.4349 71.3136L59.1767 71.3667C57.8163 71.6392 56.5814 71.8869 55.5488 71.9682C54.443 72.0567 53.1942 71.9966 52.0012 71.3136C51.2942 70.9105 50.6729 70.3694 50.1733 69.7213C49.3465 68.6456 49.0709 67.4213 48.9523 66.289C48.8372 65.2275 48.8372 63.9112 48.8372 62.4392V43.9118C48.8372 42.6591 48.8372 41.5339 48.9244 40.6104C49.0186 39.6231 49.2384 38.5581 49.8767 37.5708C50.4035 36.757 51.1116 36.0776 51.9454 35.5893C52.9744 34.9877 54.0488 34.8533 55.0151 34.8462C55.9116 34.8391 56.986 34.9488 58.1581 35.0656L58.4023 35.0904C60.4465 35.292 62.1663 35.4654 63.5581 35.745C64.514 35.936 65.4174 36.1979 66.2651 36.6119C66.0323 29.0307 62.8997 21.839 57.5306 16.5598C52.1615 11.2806 44.9775 8.32848 37.5 8.32848C30.0225 8.32848 22.8385 11.2806 17.4694 16.5598C12.1003 21.839 8.9677 29.0307 8.73488 36.6119C9.58256 36.1979 10.486 35.9396 11.4419 35.745C12.8372 35.4654 14.5535 35.2956 16.5977 35.0904L16.8419 35.0656C18.014 34.9488 19.0884 34.8391 19.9814 34.8462C20.9512 34.8533 22.0256 34.9877 23.0512 35.5893C23.8884 36.0776 24.5965 36.757 25.1233 37.5708C25.7616 38.5616 25.9779 39.6231 26.0756 40.6104C26.1628 41.5304 26.1628 42.6591 26.1628 43.9118V62.4392C26.1628 63.9112 26.1628 65.2239 26.0512 66.289C25.9291 67.4213 25.6535 68.6456 24.8267 69.7213C24.3271 70.3694 23.7058 70.9105 22.9988 71.3136C21.8058 71.9966 20.557 72.0567 19.4477 71.9682C18.2286 71.8339 17.0176 71.6331 15.8198 71.3667L15.5651 71.3136C13.5698 70.9173 11.8849 70.5776 10.5314 70.1636C9.09767 69.7213 7.8 69.1269 6.68372 68.083C5.94541 67.3919 5.316 66.5899 4.81744 65.7052C4.06744 64.3747 3.76395 62.9558 3.62093 61.4165C3.56528 60.7632 3.53037 60.1083 3.51628 59.4527C3.12098 59.5996 2.69657 59.6476 2.27908 59.5925C1.8616 59.5375 1.46338 59.3811 1.11823 59.1365C0.773078 58.892 0.491198 58.5666 0.296523 58.188C0.101848 57.8094 0.000127546 57.3887 0 56.9616V49.8847C5.95856e-05 49.4601 0.100524 49.0418 0.292958 48.6648C0.485393 48.2878 0.764182 47.9632 1.10592 47.7181C1.44766 47.473 1.84238 47.3147 2.25693 47.2564C2.67149 47.198 3.09379 47.2415 3.48837 47.383V37.5ZM8.72093 55.8753C8.72093 58.1824 8.72093 59.7322 8.83256 60.9247C8.93721 62.0782 9.12558 62.6585 9.35581 63.069C9.59651 63.4865 9.88953 63.8616 10.2279 64.1801C10.5488 64.4809 11.0233 64.7675 12.0488 65.0824C13.1233 65.415 14.55 65.7016 16.6988 66.1333C18.2407 66.4412 19.1756 66.6216 19.8593 66.6782C20.0575 66.7026 20.2579 66.7014 20.4558 66.6747C20.5496 66.6171 20.6323 66.5428 20.7 66.4553C20.7859 66.2203 20.8354 65.9732 20.8465 65.7229C20.9267 64.9762 20.9302 63.9536 20.9302 62.3047V44.0285C20.9302 42.6202 20.9302 41.7604 20.8674 41.127C20.8584 40.9077 20.8185 40.6908 20.7488 40.483C20.6737 40.3684 20.5749 40.2718 20.4593 40.1999C20.2907 40.1648 20.1186 40.1494 19.9465 40.1539C19.0404 40.1805 18.136 40.249 17.236 40.3591C15.0349 40.5785 13.5733 40.7271 12.457 40.9536C11.393 41.1659 10.8977 41.4065 10.5663 41.6613C10.0779 42.0328 9.6593 42.5105 9.34535 43.0767C9.12209 43.4801 8.93372 44.0604 8.83256 45.2316C8.72442 46.4382 8.72093 48.0093 8.72093 50.3376V55.8753ZM66.2791 50.3376C66.2791 48.0093 66.2791 46.4382 66.1674 45.2316C66.0628 44.0639 65.8779 43.4801 65.6546 43.0731C65.3462 42.5225 64.9308 42.041 64.4337 41.6577C64.1023 41.4065 63.607 41.1659 62.543 40.9501C61.4267 40.7271 59.9651 40.5785 57.764 40.3591C56.864 40.249 55.9596 40.1805 55.0535 40.1539C54.8815 40.1482 54.7095 40.1625 54.5407 40.1964C54.4247 40.2693 54.3259 40.3671 54.2512 40.483C54.1817 40.6896 54.1418 40.9053 54.1326 41.1234C54.0733 41.7604 54.0698 42.6202 54.0698 44.025V62.3047C54.0698 63.9536 54.0733 64.9762 54.1535 65.7193C54.1643 65.9709 54.2137 66.2192 54.3 66.4553C54.3682 66.5423 54.4508 66.6165 54.5442 66.6747C54.6 66.6853 54.7674 66.7101 55.1372 66.6747C55.8279 66.6216 56.7593 66.4412 58.3012 66.1333C60.45 65.7016 61.8767 65.415 62.9512 65.0824C63.9767 64.7675 64.4512 64.4809 64.7721 64.1801C65.1105 63.8616 65.4035 63.4865 65.6442 63.069C65.8744 62.655 66.0628 62.0782 66.1674 60.9247C66.2756 59.7287 66.2791 58.1824 66.2791 55.8753V50.3376Z" fill="#BFFF00"/>
</svg>
