<svg width="24" height="25" viewBox="0 0 24 25" fill="none" xmlns="http://www.w3.org/2000/svg">
<path d="M17 18.9199C15.89 18.9199 15 19.8099 15 20.9199C15 21.4504 15.2107 21.9591 15.5858 22.3341C15.9609 22.7092 16.4696 22.9199 17 22.9199C17.5304 22.9199 18.0391 22.7092 18.4142 22.3341C18.7893 21.9591 19 21.4504 19 20.9199C19 20.3895 18.7893 19.8808 18.4142 19.5057C18.0391 19.1306 17.5304 18.9199 17 18.9199ZM1 2.91992V4.91992H3L6.6 12.5099L5.24 14.9599C5.09 15.2399 5 15.5699 5 15.9199C5 16.4504 5.21071 16.9591 5.58579 17.3341C5.96086 17.7092 6.46957 17.9199 7 17.9199H19V15.9199H7.42C7.3537 15.9199 7.29011 15.8936 7.24322 15.8467C7.19634 15.7998 7.17 15.7362 7.17 15.6699C7.17 15.6199 7.18 15.5799 7.2 15.5499L8.1 13.9199H15.55C16.3 13.9199 16.96 13.4999 17.3 12.8899L20.88 6.41992C20.95 6.25992 21 6.08992 21 5.91992C21 5.65471 20.8946 5.40035 20.7071 5.21282C20.5196 5.02528 20.2652 4.91992 20 4.91992H5.21L4.27 2.91992M7 18.9199C5.89 18.9199 5 19.8099 5 20.9199C5 21.4504 5.21071 21.9591 5.58579 22.3341C5.96086 22.7092 6.46957 22.9199 7 22.9199C7.53043 22.9199 8.03914 22.7092 8.41421 22.3341C8.78929 21.9591 9 21.4504 9 20.9199C9 20.3895 8.78929 19.8808 8.41421 19.5057C8.03914 19.1306 7.53043 18.9199 7 18.9199Z" fill="#0D0D0D"/>
</svg>
