<svg width="93" height="74" viewBox="0 0 93 74" fill="none" xmlns="http://www.w3.org/2000/svg">
<path d="M5.58876 27.6358C5.44787 22.5348 7.17066 17.7551 11.4976 16.7727C14.3196 16.1327 17.129 18.5723 17.7306 22.2064L13.7934 22.9459C13.5129 21.5436 12.7168 20.6549 11.5547 20.9835C9.75221 21.4934 9.10843 23.9783 9.17109 27.0855C9.2329 30.1503 9.94808 32.1619 11.7122 32.036C12.8708 31.9531 13.9381 30.7377 14.126 29.06C14.126 29.06 17.2065 28.8035 17.906 28.7406C17.906 32.5334 15.0938 35.9918 11.7652 35.9918C8.04886 35.9918 5.72706 32.5976 5.58876 27.6358ZM32.8663 23.1342C32.5411 15.7365 34.3359 8.84855 38.9727 7.06596C43.802 5.20967 47.2592 11.9369 47.4056 20.4311C47.5818 30.7553 44.5048 35.9918 39.8908 35.9918C35.7616 35.9918 33.1985 30.6997 32.8663 23.1342ZM37.4526 22.6535C37.6037 27.1749 38.4817 30.4746 39.953 30.3301C41.5798 30.1681 42.4398 26.1959 42.3081 20.994C42.1727 15.6531 41.0961 12.2127 39.4445 13.1959C38.2743 13.8924 37.2808 17.5137 37.4526 22.6535ZM18.6116 25.187C18.3874 18.7557 20.3654 13.3604 24.1575 12.0789C28.3945 10.644 31.4664 16.0683 31.5979 23.0438C31.7467 30.9946 29.3648 35.9912 24.816 35.9912C21.0958 35.9912 18.8336 31.5176 18.6116 25.187ZM22.5314 24.4931C22.6446 28.3961 23.4891 31.2609 24.9108 31.1406C26.4239 31.0126 27.3262 27.7709 27.2294 23.5436C27.1305 19.2348 26.0699 16.3009 24.5383 16.8101C23.5115 17.152 22.4049 20.0718 22.5314 24.4931ZM54.5063 7.45405L49.2869 5.6884V35.683H61.1886V30.2901L54.5063 29.8007L54.5063 7.45405ZM84.907 28.6607L87.1979 35.683H83.5026L81.4611 29.0417L80.003 28.8724V35.683H75.6641V14.5092L82.6182 16.8651C85.4244 17.8148 87.07 20.802 87.07 23.9821C87.07 26.9026 85.9312 28.2137 84.907 28.6607ZM83.7119 23.2697C83.7119 21.9201 83.0266 20.9371 82.0463 20.6753L80.003 20.1294V24.7213L82.0463 25.106C83.0266 25.2901 83.7119 24.6202 83.7119 23.2697ZM49.2869 44.1546L52.9196 43.9104L52.9225 66.7219L57.8913 65.0529V43.5533L61.154 43.2829V37.9124H49.2868L49.2869 44.1546ZM62.6743 63.4473L74.1531 59.5923V55.1068L67.4138 56.8912V52.1784L73.3536 50.9858V46.4114L67.4138 47.1842V42.9081L74.1531 42.4313V37.9124H62.6743V63.4473ZM84.9292 48.9902L87.1979 55.2164L83.4873 56.4618L81.4696 50.5372L80.0089 50.8591V57.6285L75.6641 59.0863V37.9124H82.6327C85.4487 37.9124 87.1028 40.3558 87.1028 43.5528C87.1028 46.4894 85.9581 48.1945 84.9292 48.9902ZM83.7281 43.9762C83.7281 42.619 83.041 41.8652 82.0573 41.935L80.0089 42.0801V46.6909L82.0573 46.3852C83.041 46.2385 83.7281 45.3329 83.7281 43.9762ZM28.7495 37.9124L33.6655 64.3536L29.0909 62.7456L28.4818 58.7683L24.3622 57.5859L23.8361 60.9344L20.0677 59.6252L23.9993 37.9124H28.7495ZM27.7607 53.6093L26.3017 44.663L24.9549 52.966L27.7607 53.6093ZM11.93 46.8386L10.2049 37.9124H5.98958V54.7207L8.93411 55.758V45.1305L11.1675 56.5299L12.4355 56.9736L15.3124 46.0766V57.9781L19.1752 59.3288V37.9124H14.1663L11.93 46.8386ZM93 28.6535V46.6488C93 55.7336 91.631 58.3815 83.3658 62.0102C80.4974 63.2608 76.1649 65.4283 65.0961 69.6513C60.2232 71.5125 52.8944 74 46.4915 74C40.1212 74 32.7943 71.5125 27.9045 69.6513C16.8498 65.4283 12.5181 63.2608 9.65166 62.0102C1.38607 58.3815 0 55.7336 0 46.6488V28.6536C0 18.8622 2.32481 14.9775 10.4638 11.2209C12.1354 10.4511 14.0626 9.48747 24.6075 5.58638C36.6961 1.10865 42.7488 0 46.4915 0C50.251 0 56.3033 1.10863 68.4078 5.5864C78.9532 9.48747 80.8801 10.4511 82.5526 11.2209C90.6916 14.9775 93 18.8622 93 28.6536L93 28.6535ZM90.4043 27.4498C90.4043 18.5257 86.423 15.5217 80.7212 13.1308C78.7137 12.2808 77.8843 11.7351 67.7714 7.96176C59.4577 4.84907 51.8442 2.52184 46.4915 2.52184C41.1718 2.52184 33.5589 4.84907 25.2281 7.96176C15.1313 11.7351 14.3021 12.2808 12.2799 13.1308C6.5927 15.5217 2.61163 18.5257 2.61163 27.4498V47.3384C2.61163 54.2396 4.18842 56.8731 9.8426 59.425C14.5717 61.5442 15.051 61.7695 24.8309 65.6375C31.0099 68.0772 39.2444 71.304 46.4916 71.304C53.7715 71.304 61.9898 68.0772 68.17 65.6375C77.9648 61.7695 78.4435 61.5442 83.1728 59.425C88.8273 56.8731 90.4043 54.2396 90.4043 47.3384V27.4498ZM38.5535 45.8711C38.4787 44.3727 39.56 43.3542 40.6224 43.4683C41.4091 43.5638 42.4372 44.4096 42.2951 46.4495L47.4789 46.9604C47.7545 41.6822 45.546 37.7101 40.7945 37.6282C37.1118 37.5801 33.5549 40.7754 33.6676 45.5908C33.8524 54.2164 43.1841 52.8413 43.2507 60C43.2583 61.0734 42.6627 62.161 41.5684 62.0502C40.1904 61.7862 39.1538 60.823 39.0614 57.8744L34.2117 56.6762C34.1631 61.1838 35.7776 65.9459 40.5116 66.9787C45.1117 67.9959 49.3304 64.2529 48.3316 57.8173C47.1575 50.3334 38.7649 49.8856 38.5535 45.8711ZM62.6777 35.683H74.1531V31.158L67.4138 30.6965V26.0783L73.0054 26.8371V22.2429L67.4138 21.0868V16.7577L74.1531 18.56V13.9878L62.6743 10.1486L62.6777 35.683Z" fill="#BFFF00"/>
</svg>
