<svg width="202" height="59" viewBox="0 0 202 59" fill="none" xmlns="http://www.w3.org/2000/svg">
<path d="M45.1323 22.1317H51.8762L53.524 16.7194L67.79 8.65378L69.3157 3.8747H62.5566L61.8395 6.27177L51.2811 12.1665L44.644 6.49791L45.4527 3.85962H38.7088L37.3356 8.38241L46.8259 16.5837L45.1323 22.1317ZM101.876 14.7143L99.6328 22.1166H130.148L131.674 17.3074H108.436L118.644 13.071L110.664 8.68393H134.268L135.794 3.85962H105.278L102.974 11.0659L106.255 12.9203L101.876 14.7143ZM12.2214 3.8747H5.53855L0 22.1317H6.68287L12.2214 3.8747ZM35.3826 3.8747H29.2795L27.235 10.5533H11.9773L10.4515 15.3777H25.7092L23.6647 22.1015H30.5154L36.0082 3.8747H35.3826ZM76.8378 8.68393H93.8959L93.4229 10.1915L87.686 12.5735H77.4023L75.8765 17.3828H88.7083L99.2208 13.0107L102.074 3.8747H71.5586L66.0201 22.1317H72.7487L76.8378 8.68393ZM135.168 16.0259L133.307 22.1317H140.035C140.035 22.1317 141.179 18.3325 141.454 17.5034C139.425 16.9456 137.319 16.4631 135.168 16.0259ZM156.819 17.1566L166.523 13.2519L169.36 3.8747H138.845L135.946 13.463C143.051 13.6636 150.085 14.9085 156.819 17.1566ZM144.124 8.68393H161.167C160.953 9.3925 160.74 10.1011 160.648 10.3875L155.415 12.5735H142.934C143.194 11.7594 143.972 9.19651 144.124 8.68393Z" fill="#BD00FF"/>
<path d="M199.235 58.0425C194.658 44.6249 187.731 35.0969 179.873 28.3579C186.907 21.5888 191.713 12.4075 192.583 0C192.583 0 189.714 12.3472 174.274 24.1215C151.387 8.69883 123.923 13.0859 123.923 13.0859C139.872 14.2084 155.264 19.3522 168.628 28.0262C154.194 37.0718 131.308 44.9113 95.2539 45.1676C95.2539 45.1676 146.871 52.8563 174.975 32.4435C184.512 39.5119 192.723 48.1757 199.235 58.0425Z" fill="#BD00FF"/>
<path d="M194.276 7.40223C194.28 6.68726 194.497 5.9892 194.901 5.39617C195.305 4.80314 195.878 4.34173 196.548 4.07019C197.217 3.79864 197.953 3.72914 198.662 3.87045C199.371 4.01175 200.022 4.35754 200.533 4.86415C201.044 5.37077 201.391 6.0155 201.531 6.71695C201.671 7.4184 201.598 8.14514 201.32 8.8054C201.042 9.46567 200.573 10.0299 199.971 10.4268C199.369 10.8237 198.662 11.0355 197.938 11.0355C197.456 11.0376 196.977 10.9448 196.531 10.7628C196.085 10.5807 195.68 10.3129 195.339 9.97493C194.998 9.63694 194.729 9.23549 194.547 8.79386C194.364 8.35223 194.272 7.87921 194.276 7.40223ZM201.005 7.40223C201.005 6.60255 200.684 5.83563 200.111 5.27017C199.539 4.70471 198.763 4.38704 197.954 4.38704C197.144 4.38704 196.368 4.70471 195.796 5.27017C195.224 5.83563 194.902 6.60255 194.902 7.40223C194.902 8.20191 195.224 8.96884 195.796 9.53429C196.368 10.0998 197.144 10.4174 197.954 10.4174C198.763 10.4174 199.539 10.0998 200.111 9.53429C200.684 8.96884 201.005 8.20191 201.005 7.40223ZM199.754 9.43749H199.159L197.999 7.53791H197.099V9.43749H196.58V5.4122H198.35C199.434 5.4122 199.785 5.80418 199.785 6.4826C199.785 7.16102 199.235 7.56807 198.503 7.58314L199.754 9.43749ZM197.832 7.19117C198.411 7.19117 199.266 7.2967 199.266 6.46752C199.266 5.63834 198.747 5.77403 198.228 5.77403H197.069V7.20624L197.832 7.19117Z" fill="#BD00FF"/>
</svg>
