<svg width="93" height="62" viewBox="0 0 93 62" fill="none" xmlns="http://www.w3.org/2000/svg">
<path d="M44.1763 54.6713C25.7991 56.3666 6.64495 53.6963 3.96212 39.3345C2.64969 32.2546 5.87933 24.747 10.1579 20.0807V17.5889C2.45049 24.3485 -1.72651 32.9015 0.679404 43.005C3.75263 55.9639 20.1874 63.3025 45.2797 60.8656C55.2118 59.903 68.2009 56.7096 77.2373 51.7461V44.7003C69.0361 49.5868 55.4744 53.6232 44.1763 54.6713ZM92.5879 17.4206C88.2288 -3.8613 46.9073 -5.21047 20.2707 11.0037V12.7946C46.8768 -0.883919 84.6161 -0.80081 88.0522 18.8037C89.2053 25.2888 85.5521 32.0451 79.0258 35.9354V41.0222C86.8764 38.1426 94.9291 28.8288 92.5879 17.4206Z" fill="#BD00FF"/>
<path d="M75.7512 14.3215H70.9329V35.7816C70.9329 38.2965 72.1487 40.4836 75.7512 40.8331V14.3215ZM18.3786 22.1569H13.5514L13.5488 36.1775C13.5488 38.7013 14.7685 40.8861 18.3786 41.229V22.1569ZM13.5514 14.9743H18.3636V19.5417H13.5514V14.9743ZM47.2348 41.007C43.3347 41.007 41.6843 38.2962 41.6843 35.6261V17.0101H46.4607V22.1569H50.0579V26.0149H46.4607V35.3311C46.4607 36.4198 46.9777 37.0264 48.1129 37.0264H50.0579V41.0071L47.2348 41.007ZM56.0239 33.0759C56.0239 35.5203 57.5524 37.3167 60.2569 37.3167C62.3761 37.3167 63.4206 36.7286 64.6439 35.5203L67.5953 38.3318C65.7031 40.2012 63.7206 41.3378 60.2217 41.3378C55.6507 41.3378 51.2711 38.843 51.2711 31.5699C51.2711 25.3521 55.098 21.8374 60.1157 21.8374C65.2165 21.8374 68.1478 25.952 68.1478 31.3531V33.0764H56.0239M59.9064 25.7878C58.2715 25.7878 57.0154 26.6298 56.4829 27.7656C56.1728 28.4482 56.0592 28.9802 56.0238 29.8191H63.385C63.2919 27.7656 62.3609 25.7878 59.9064 25.7878ZM31.3514 26.0149C32.752 26.0149 33.3343 26.7074 33.3343 27.8312V41.0349H38.1118V27.8034C38.1118 25.1224 36.6833 22.162 32.488 22.162L22.6193 22.1569V41.0349H27.3986V26.0149H31.3514ZM80.9355 18.1561C79.8734 18.1561 79.0256 17.2996 79.0256 16.2388C79.0256 15.183 79.8734 14.3215 80.9355 14.3215C81.9924 14.3215 82.8602 15.183 82.8602 16.2388C82.8602 17.2996 81.9922 18.1561 80.9355 18.1561ZM80.9355 14.6412C80.0602 14.6412 79.3561 15.3647 79.3561 16.2388C79.3561 17.1178 80.0602 17.8286 80.9355 17.8286C81.8107 17.8286 82.5374 17.1178 82.5374 16.2388C82.5373 15.3647 81.8108 14.6412 80.9355 14.6412ZM81.7855 17.3879H81.4273C81.4119 17.3877 81.3968 17.3831 81.3839 17.3746C81.371 17.3662 81.3608 17.3542 81.3545 17.3401L80.8699 16.5163C80.8547 16.4987 80.8143 16.4786 80.8019 16.4786H80.58V17.2997C80.58 17.3402 80.5521 17.3881 80.4994 17.3881H80.1763C80.1281 17.3881 80.0956 17.3402 80.0956 17.2997V15.2285C80.0956 15.1074 80.1359 15.0576 80.2419 15.0424C80.358 15.0298 80.6607 15.0147 80.83 15.0147C81.4278 15.0147 81.7787 15.1907 81.7787 15.745V15.7855C81.7787 16.1279 81.6097 16.3145 81.3473 16.3978L81.8518 17.2568C81.8601 17.276 81.8644 17.2966 81.8644 17.3175C81.8637 17.35 81.8463 17.3879 81.7855 17.3879ZM81.3215 15.745C81.3215 15.5136 81.1776 15.4405 80.8697 15.4405H80.5645V16.0975C80.6125 16.0975 80.8295 16.1076 80.8697 16.1076C81.1776 16.1076 81.3215 16.0049 81.3215 15.7855V15.745Z" fill="#BD00FF"/>
</svg>
