<svg width="202" height="61" viewBox="0 0 202 61" fill="none" xmlns="http://www.w3.org/2000/svg">
<path d="M0 43.1483V0.893716H7.46113V43.1482H0V43.1485V43.1483ZM26.5612 12.4941C16.9943 12.4941 10.3743 19.8112 10.3743 28.1864C10.3743 37.5332 17.5764 43.9727 26.6355 43.9727C35.233 43.9727 42.6939 37.6523 42.6939 28.1662C42.6939 20.1896 36.5114 12.4941 26.5612 12.4941ZM26.4731 19.6547C31.4798 19.6547 35.1646 23.5312 35.1646 28.2132C35.1646 33.1776 31.1016 36.7987 26.6081 36.7987C21.2988 36.7987 17.9572 32.6126 17.9572 28.2267C17.9573 23.4193 21.73 19.6547 26.4731 19.6547ZM61.4406 12.4941C51.8741 12.4941 45.2539 19.8112 45.2539 28.1864C45.2539 37.5332 52.456 43.9727 61.515 43.9727C70.1126 43.9727 77.5733 37.6523 77.5733 28.1662C77.5733 22.5802 75.1416 20.1018 75.1416 20.1018L77.2098 19.3962V13.3722H66.6125C66.6125 13.3722 64.3148 12.4941 61.4406 12.4941ZM61.3528 19.6547C66.3592 19.6547 70.0443 23.5312 70.0443 28.2132C70.0443 33.1776 65.9813 36.7987 61.4879 36.7987C56.1784 36.7987 52.837 32.6126 52.837 28.2267C52.8372 23.4193 56.6098 19.6547 61.3528 19.6547ZM69.9915 45.2139C69.9915 50.178 65.9288 53.8264 61.4353 53.8264C56.1257 53.8264 52.7708 49.5995 52.7708 45.2139H45.2013C45.2013 54.5609 52.4031 61 61.4624 61C70.0598 61 77.5207 54.6994 77.5207 45.2139H69.9915ZM80.5619 43.1483V13.3722H88.0234V43.1483H80.5619ZM95.2686 43.1483V20.0419H91.2675V13.3722H95.2686V4.22854H102.73V13.3722H106.839V20.0419H102.73V43.1483H95.2686ZM89.2181 4.9153C89.2181 7.62981 87.0059 9.83047 84.2773 9.83047C81.5481 9.83047 79.3362 7.62968 79.3362 4.9153C79.3362 2.20066 81.5484 0 84.2773 0C87.006 0 89.2181 2.20066 89.2181 4.9153ZM123.614 12.4741C114.002 12.4741 107.806 19.7947 107.806 28.4553C107.806 37.4051 114.023 43.9929 123.77 43.9929C132.861 43.9929 137.334 38.345 137.334 38.345L132.346 33.3764C132.346 33.3764 128.58 37.4174 123.864 37.4174C119.933 37.4174 116.79 35.2345 115.693 31.2319H138.942V29.1882C138.943 21.0327 134.198 12.4741 123.614 12.4741ZM123.378 19.0092C126.815 19.0092 130.33 20.8384 131.116 25.208H115.49C116.109 22.1364 118.81 19.0092 123.378 19.0092ZM157.606 43.9969C147.967 43.9969 141.399 36.6935 141.399 28.0828C141.399 19.1963 148.822 12.4685 157.575 12.4685C166.036 12.4685 170.368 18.4107 170.368 18.4107L165.163 23.5652C165.163 23.5652 162.148 19.6898 157.539 19.6898C152.432 19.6898 148.94 23.5766 148.94 28.1967C148.94 33.0748 152.654 36.8179 157.482 36.8179C162.164 36.8179 165.155 32.9488 165.155 32.9488L170.413 38.1004C170.413 38.1004 166.123 43.997 157.606 43.997L157.606 43.9969ZM173.127 43.1699V0.786308H180.589V16.3583C180.589 16.3583 183.446 12.4685 189.661 12.4685C197.474 12.4685 202 18.2461 202 25.6356V43.1698H194.538V26.7574C194.538 21.793 191.432 19.7332 187.99 19.7332C184.068 19.7332 180.589 21.9534 180.589 27.1413V43.1699H173.127Z" fill="#BFFF00"/>
</svg>
