<svg width="85" height="29" viewBox="0 0 85 29" fill="none" xmlns="http://www.w3.org/2000/svg">
<path d="M14.4305 5.17857C9.31796 5.17857 5.15374 9.36286 5.15374 14.5C5.15374 19.6371 9.31796 23.8214 14.4305 23.8214H23.7072V18.27H14.4305V13.0914H28.861V29H14.4305C6.4731 29 0 22.4957 0 14.5C0 6.50429 6.4731 0 14.4305 0H28.861V5.17857H14.4305Z" fill="#404040"/>
<path d="M43.2834 5.17857C38.1709 5.17857 34.0066 9.36286 34.0066 14.5C34.0066 19.6371 38.1709 23.8214 43.2834 23.8214H52.5601V18.27H43.2834V13.0914H57.7138V29H43.2834C35.326 29 28.8529 22.4957 28.8529 14.5C28.8529 6.50429 35.326 0 43.2834 0H57.7138V5.17857H43.2834Z" fill="#404040"/>
<path d="M85 7.99572L79.8463 8.03714V7.87143C79.8463 6.42143 78.6506 5.22 77.2075 5.22H65.4982C64.0552 5.22 62.8595 6.42143 62.8595 7.87143V8.03714C62.8595 9.48714 64.0552 10.6886 65.4982 10.6886H75.8882C78.5681 10.6886 80.9595 11.8486 82.6087 13.6714C82.7324 13.7957 82.8148 13.92 82.9385 14.0443C84.2166 15.6186 85 17.6486 85 19.8443C85 24.8986 80.9182 29 75.8882 29H66.8588C61.8288 29 57.747 24.8986 57.747 19.8443H62.9008C62.9008 22.04 64.6736 23.8214 66.8588 23.8214H75.8882C78.0734 23.8214 79.8875 22.04 79.8875 19.8443C79.8875 17.6486 78.0734 15.8671 75.8882 15.8671H65.4982C63.3955 15.8671 61.4989 15.0386 60.0971 13.6714C59.7261 13.2986 59.3962 12.8843 59.1076 12.4286C58.2418 11.1857 57.747 9.65286 57.747 7.99572V7.83C57.747 3.52143 61.2103 0 65.4982 0H77.2075C81.4955 0 85 3.52143 85 7.83V7.99572Z" fill="#404040"/>
</svg>
