<svg width="202" height="44" viewBox="0 0 202 44" fill="none" xmlns="http://www.w3.org/2000/svg">
<path d="M21.8663 6.86479C23.5913 4.77191 24.8926 2.37085 26.1879 0C25.9821 1.43218 25.506 2.80393 25.0137 4.15956C24.2974 6.07921 23.4985 7.96863 22.637 9.82986C26.5591 7.8659 29.4584 4.39524 31.8471 0.809753C30.5398 5.36412 27.7596 9.58613 23.783 12.237C26.1455 12.1262 28.4879 11.7294 30.7859 11.1855C29.5088 12.2209 28.0279 13.0004 26.4482 13.4576C23.4259 14.3399 20.2099 14.2352 17.1936 15.1456C16.2272 15.4458 15.3677 16.1508 15.0167 17.1177C14.5002 18.4874 14.7302 19.9881 14.8694 21.4061C15.7127 20.3184 17.0221 19.7302 18.3396 19.4502C16.4532 20.0082 15.8701 22.1393 15.5937 23.8576C15.2931 25.1084 15.7793 26.5205 15.053 27.6646C14.3811 28.6879 12.9769 28.7483 11.8794 28.6194C10.4348 28.2004 9.43813 26.9657 8.52418 25.8477C9.65805 26.5487 10.9109 27.1993 12.2748 27.2195C12.753 27.2436 13.0718 26.8528 13.3562 26.5326C13.0334 25.9283 12.5432 25.4066 11.8653 25.2092C12.4685 25.2716 13.0738 25.2273 13.6589 25.0742C13.673 23.9583 13.3925 22.8444 12.8539 21.8654C11.7704 19.9538 11.8471 17.6635 11.9318 15.5384C11.5586 15.5969 11.0542 15.6049 10.8867 16.0158C10.4227 16.8659 10.0111 17.7683 9.90822 18.7412C9.74278 18.3222 9.5612 17.9093 9.38769 17.4943C8.86918 17.875 8.26795 18.1087 7.63847 18.2255C7.27329 18.8057 6.99891 19.4382 6.84961 20.1089C6.57118 19.5348 6.30285 18.9567 6.0789 18.3585C5.55837 18.4814 4.74731 18.3081 4.50521 18.9225C4.06941 20.3023 4.53749 21.7526 4.98942 23.0659C4.40634 22.657 3.82731 22.2179 3.42379 21.6217C2.6773 20.5823 2.43318 19.2951 1.82993 18.1812C1.08948 16.7934 0.568951 15.3068 0 13.8444C2.09624 14.1868 4.1824 13.3932 5.94776 12.3216C8.36479 10.835 10.4187 8.81666 12.1901 6.61501C13.5842 7.14277 14.9965 7.71483 16.4956 7.8377C17.121 7.91223 17.577 7.40261 17.9522 6.98162C18.8803 5.8677 19.5521 4.5725 20.2179 3.29139C19.9335 5.02773 19.534 6.7399 19.1285 8.45006C20.23 8.34934 21.1924 7.71684 21.8663 6.86479ZM7.30356 13.7376C8.83085 13.5785 10.3642 13.4637 11.8753 13.1918C12.1961 11.7777 12.5593 10.3737 12.9245 8.96975C11.266 10.7907 9.28883 12.2934 7.30356 13.7376Z" fill="#BFFF00"/>
<path d="M32.1985 0.0222168C38.7394 1.18448 44.7336 4.97341 48.7042 10.2791C51.9988 14.6441 53.9175 19.9156 54.8133 25.2757C55.4307 28.9236 55.6062 32.636 55.4892 36.3303C54.428 32.3258 52.6989 28.3314 49.6625 25.4207C48.8494 24.6472 47.9173 24.0168 46.9327 23.487C47.5501 27.8238 47.5521 32.4487 45.7363 36.5176C45.7908 33.3007 45.2561 29.8623 43.1962 27.2759C43.0005 30.0879 41.905 32.922 39.7825 34.8417C38.9836 35.585 38.0353 36.1409 37.0608 36.6203C38.0777 35.3715 38.7758 33.8446 38.8766 32.2251C34.8698 35.4238 29.5838 36.435 24.5742 36.5881C19.4738 36.5941 14.3714 36.5881 9.271 36.5901C9.56152 33.6996 11.3955 31.1817 13.7843 29.6145C16.2517 27.7936 19.383 27.0725 21.6588 24.9715C22.8653 23.8737 23.9467 22.3791 23.8801 20.675C23.8357 19.3415 22.7725 18.2417 21.5297 17.8892C20.1476 17.4702 18.5719 17.0855 17.2 17.7341C16.5665 18.002 16.2316 18.6224 15.9612 19.2146C15.8745 18.2699 16.2558 17.299 17.0689 16.7733C18.7152 15.6473 20.8134 15.4398 22.7584 15.5365C25.0967 15.6251 27.3947 16.7995 28.7566 18.7131C29.9853 20.53 30.0861 22.7981 30.3101 24.9091C29.9207 24.3511 29.4647 23.8476 28.9805 23.3742C29.5656 25.7914 28.7868 28.267 27.9616 30.5311C28.0847 29.3869 28.0706 28.1944 27.6005 27.1228C27.1667 29.4997 26.1176 31.7779 24.4571 33.5525C24.8607 32.6239 25.1895 31.645 25.1835 30.6197C24.3522 31.2945 23.5049 32.0317 23.0489 33.0208C22.5526 34.1468 22.6615 35.446 23.0832 36.578C27.6066 34.8578 31.6013 31.1313 32.6545 26.2869C33.5684 28.0252 33.3344 30.0738 32.9854 31.931C35.1401 29.7495 36.0944 26.581 35.8604 23.5635C35.7393 21.5976 35.1744 19.686 34.4118 17.8791C37.0447 19.7323 38.8201 22.6752 39.3326 25.8417C39.5001 21.3216 39.1066 16.7733 38.11 12.3599C37.0729 7.89417 35.3056 3.46871 32.1985 0.0222168ZM63.5594 6.15782C66.9388 7.88208 70.8892 8.2084 74.1234 10.2549C75.8665 11.3125 77.299 13.0025 77.6964 15.0369C78.2129 17.4743 77.7731 20.3326 75.8221 22.0508C74.7589 23.0801 73.3567 23.5756 72.0332 24.1618C74.882 26.726 77.7469 29.2761 80.7066 31.7135C80.9649 27.0282 81.09 22.3288 80.973 17.6354C80.9104 17.0774 80.9992 16.4611 80.7147 15.9575C80.0751 15.1014 79.1975 14.4689 78.3521 13.8324C80.6683 13.8646 82.9804 14.1244 85.2986 14.0096C87.8508 13.9351 90.4111 13.927 92.9572 13.6994C92.7918 15.2142 92.6062 16.735 92.6385 18.2639C91.668 17.3192 90.5402 16.3563 89.136 16.2173C87.7721 16.0783 86.4184 16.4026 85.1049 16.733C84.772 18.8359 84.8931 20.9792 84.8648 23.1002C86.7331 23.0318 88.6316 23.1244 90.4716 22.7477C90.9478 22.2401 91.3896 21.6963 91.9243 21.243C91.8839 22.9814 91.9243 24.7218 91.9585 26.4601C89.7897 25.3402 87.189 25.1428 84.8709 25.8981C84.9415 27.9588 84.9919 30.0214 85.0868 32.0801C87.2415 32.0337 89.4911 32.5051 91.5692 31.7376C92.4024 31.4778 92.7555 30.6036 93.046 29.8603C93.1751 30.8574 93.6553 31.7558 94.0649 32.6582C94.3615 30.3397 94.6358 28.0172 94.8195 25.6866C95.1281 21.6439 94.6641 17.6012 94.2465 13.5846C96.8148 13.6148 99.4336 13.5866 101.927 14.2836C104.28 15.0309 106.66 16.1629 108.149 18.2075C109.693 20.2701 110.08 22.9411 109.953 25.453C110.23 25.4832 110.508 25.5134 110.788 25.5456C110.796 21.656 110.595 17.7704 110.538 13.8807C113.811 13.927 117.396 13.7075 120.267 15.5586C122.706 17.0734 123.671 20.5703 122.222 23.07C121.221 24.7197 119.315 25.4207 117.569 25.9827C119.151 27.8137 120.703 29.8079 122.868 30.9802C122.291 31.0346 121.713 31.0951 121.14 31.1595C121.766 31.6671 122.456 32.0861 123.156 32.4829C124.96 26.6535 126.174 20.6629 127.746 14.769C130.932 14.4749 134.132 14.348 137.323 14.1547C136.424 14.8053 135.536 15.472 134.648 16.1388C136.934 21.515 139.171 26.9113 141.449 32.2896C141.542 32.5836 141.843 32.7065 142.083 32.8636C142.787 33.2725 143.517 33.6371 144.252 33.9896C141.201 33.8809 138.146 33.9776 135.096 33.9453C135.865 33.4639 136.651 33.0087 137.463 32.6038C136.668 30.5049 135.861 28.412 135.078 26.309C133.117 26.3977 131.162 26.585 129.213 26.8005C128.658 28.8894 128.135 30.9903 127.568 33.0772C128.307 33.3753 129.055 33.6492 129.78 33.9836C126.106 33.7197 122.44 34.1508 118.772 34.316C117.634 31.6067 116.383 28.9458 115.078 26.3151C114.983 26.3151 114.789 26.3171 114.692 26.3191C114.632 28.412 114.581 30.5109 114.636 32.6058C115.227 32.9321 115.784 33.3128 116.353 33.6774C113.986 33.9332 111.616 34.1528 109.241 34.324C110.008 31.6188 110.562 28.8491 110.766 26.0411C110.482 25.9888 110.195 25.9344 109.913 25.884C109.798 27.3867 109.416 28.9095 108.543 30.1604C107.796 31.234 106.717 32.0337 105.555 32.6058C102.845 33.9211 99.8069 34.4892 96.8047 34.4086C95.7233 34.3663 94.6459 34.463 93.5746 34.5939C89.6928 34.5234 85.805 34.3502 81.9252 34.5879C84.1446 37.1682 86.4688 39.7365 89.3398 41.6098C86.7674 41.7448 84.197 41.9462 81.6266 42.1516C79.0139 38.4211 76.3709 34.7087 73.8288 30.9299C72.4568 28.837 71.0062 26.7743 69.949 24.4982C69.5818 24.5284 69.2187 24.5586 68.8555 24.5888C68.797 27.574 68.6396 30.5633 68.7062 33.5485C69.3175 34.044 69.9672 34.4952 70.5825 34.9887C67.9779 35.3171 65.3712 35.6192 62.7585 35.8408C63.5957 32.0096 64.3564 28.128 64.4976 24.2001C63.2265 23.9261 61.9817 23.5172 60.8075 22.9552C62.0503 23.207 63.2971 23.4487 64.5621 23.5676C64.5864 17.7522 64.0315 11.949 63.5594 6.15782ZM69.255 11.812C69.0674 15.6916 68.9261 19.5752 68.8212 23.4588C70.3243 23.1345 72.011 22.4436 72.6183 20.9107C73.4717 18.6043 73.4414 15.9575 72.5113 13.6773C72.0654 12.6661 71.3492 11.5763 70.1851 11.3527C69.8381 11.2903 69.2166 11.3306 69.255 11.812ZM114.579 16.7974C114.491 19.1139 114.622 21.4344 114.67 23.7529C116.187 23.3621 117.749 22.6712 118.667 21.3458C119.526 20.1614 119.173 18.2901 117.904 17.5407C116.912 16.9485 115.725 16.7229 114.579 16.7974ZM98.4188 17.3977C98.9978 22.0206 99.3146 26.7723 98.334 31.365C100.497 31.2844 102.775 30.7526 104.417 29.264C105.512 28.2911 106.13 26.8952 106.356 25.4691C105.329 26.1076 104.171 26.4863 103.019 26.8267C104.233 25.1226 104.946 22.929 104.461 20.8442C104.215 19.7585 103.604 18.6144 102.492 18.2236C101.187 17.7341 99.7766 17.6696 98.4188 17.3977ZM131.666 17.3373C131.081 19.5994 130.502 21.8614 129.901 24.1195C131.341 24.1155 132.782 24.1034 134.222 24.0893C133.377 21.8373 132.52 19.5893 131.666 17.3373ZM190.944 6.37738C194.63 6.38745 198.314 6.4076 202 6.3653C201.274 6.82255 200.541 7.28584 199.718 7.54166C199.498 10.7646 199.563 13.9996 199.523 17.2285C199.406 26.0009 199.531 34.7792 199.345 43.5516C197.346 40.3226 195.635 36.9245 193.797 33.6029C190.657 27.848 187.635 22.0286 184.387 16.3321C184.371 20.3245 184.51 24.3169 184.647 28.3052C184.74 30.0778 184.74 31.8625 185.012 33.619C186.059 33.9957 187.096 34.3945 188.154 34.749C184.165 34.7228 180.174 34.6181 176.186 34.6926C176.999 34.2596 177.824 33.8527 178.669 33.484C179.026 30.9722 179.004 28.4241 179.137 25.8941C179.282 21.382 179.379 16.8679 179.454 12.3559C178.358 12.0134 177.279 11.6207 176.198 11.242C179.662 11.1694 183.128 11.2238 186.592 11.103C187.93 13.4859 189.271 15.8688 190.641 18.2337C191.799 20.1875 192.895 22.1857 194.21 24.0389C194.299 20.2278 194.356 16.4147 194.315 12.6016C194.269 10.9056 194.299 9.18735 193.946 7.5195C192.919 7.20527 191.943 6.76212 190.944 6.37738Z" fill="#BFFF00"/>
<path d="M147.048 14.8073C148.787 14.2776 150.659 13.9593 152.463 14.3319C154.462 14.6925 156.419 15.2606 158.358 15.8628C157.458 17.2447 157.035 18.8521 156.805 20.4676C154.999 18.6043 152.528 17.1319 149.854 17.2467C148.333 17.2507 146.755 17.7784 145.722 18.9326C144.625 20.0728 144.385 21.8031 144.712 23.3017C144.994 24.6513 145.854 25.7894 146.836 26.722C146.104 26.6213 145.341 26.446 144.776 25.9425C144.572 25.8075 144.417 25.5235 144.141 25.6061L144.33 25.7733C144.681 27.4875 145.315 29.3084 146.83 30.3397C149.033 31.8283 152.029 31.7477 154.351 30.5653C154.696 29.6629 154.432 28.6296 154.414 27.6808C154.452 27.1913 153.91 27.0121 153.577 26.7905C152.041 25.9969 150.403 25.4248 148.775 24.8527C151.563 24.8386 154.349 24.7077 157.136 24.603C157.273 27.707 157.382 30.8493 158.207 33.8648C155.292 33.9433 152.378 34.0541 149.463 34.0702C147.149 34.0924 144.742 33.3189 143.13 31.6067C141.459 29.8684 140.783 27.431 140.596 25.0844C140.354 22.6531 141.034 20.1292 142.539 18.1914C143.705 16.6968 145.252 15.4539 147.048 14.8073Z" fill="#BFFF00"/>
<path d="M162.661 15.6979C164.528 14.3322 167.025 14.0945 169.231 14.6283C171.161 15.0714 172.854 16.3304 173.934 17.9761C175.39 20.1656 175.943 22.8406 175.969 25.4391C176.784 24.577 177.42 23.5698 177.991 22.5345C177.839 24.3735 177.194 26.132 176.373 27.7737C175.939 28.6761 175.332 29.4899 174.989 30.4366C174.069 32.6081 172.029 34.3525 169.63 34.568C167.34 34.6909 164.77 34.7473 162.879 33.2325C160.874 31.609 160.216 28.9601 159.742 26.545C159.236 27.2782 158.739 28.0174 158.239 28.7547C157.648 25.2034 158.602 21.5333 160.386 18.4514C160.957 17.4 161.671 16.3948 162.661 15.6979ZM165.906 17.9982C164.752 18.252 163.725 18.9852 163.105 19.9884C162.193 21.4326 162.022 23.2133 162.193 24.8791C162.351 26.5873 162.839 28.3639 164.039 29.645C165.234 30.9362 167.122 31.4136 168.827 31.1437C170.322 30.8939 171.559 29.792 172.217 28.4626C173.042 26.8693 173.092 24.996 172.798 23.2576C172.507 21.6482 171.803 20.0287 170.498 18.9873C169.231 17.96 167.479 17.6679 165.906 17.9982Z" fill="#BFFF00"/>
<path d="M167.394 19.6294C167.808 21.1925 168.165 23.0195 169.614 23.9803C169.002 24.218 168.526 24.7055 168.262 25.2997C167.554 26.8346 167.487 28.5568 167.32 30.2126C167.263 28.5468 167.231 26.7863 166.38 25.2997C166.073 24.7317 165.583 24.2945 165.028 23.9763C166.553 23.0658 167.003 21.2328 167.394 19.6294Z" fill="#BFFF00"/>
</svg>
