<svg width="102" height="58" viewBox="0 0 102 58" fill="none" xmlns="http://www.w3.org/2000/svg">
<g clip-path="url(#clip0_101_104)">
<path d="M89.25 6.96591C90.9408 6.96591 92.5623 7.63988 93.7578 8.83956C94.9533 10.0392 95.625 11.6664 95.625 13.363V45.3483C95.625 47.0449 94.9533 48.672 93.7578 49.8717C92.5623 51.0713 90.9408 51.7453 89.25 51.7453H12.75C11.0592 51.7453 9.43774 51.0713 8.24219 49.8717C7.04665 48.672 6.375 47.0449 6.375 45.3483V13.363C6.375 11.6664 7.04665 10.0392 8.24219 8.83956C9.43774 7.63988 11.0592 6.96591 12.75 6.96591H89.25ZM12.75 0.568848C9.36849 0.568848 6.12548 1.91679 3.73439 4.31616C1.3433 6.71552 0 9.96975 0 13.363L0 45.3483C0 48.7415 1.3433 51.9957 3.73439 54.3951C6.12548 56.7944 9.36849 58.1424 12.75 58.1424H89.25C92.6315 58.1424 95.8745 56.7944 98.2656 54.3951C100.657 51.9957 102 48.7415 102 45.3483V13.363C102 9.96975 100.657 6.71552 98.2656 4.31616C95.8745 1.91679 92.6315 0.568848 89.25 0.568848H12.75Z" fill="#BFFF00"/>
<path d="M82.875 40.5505C82.875 40.1264 83.0429 39.7196 83.3418 39.4197C83.6407 39.1198 84.0461 38.9513 84.4688 38.9513H87.6562C88.0789 38.9513 88.4843 39.1198 88.7832 39.4197C89.0821 39.7196 89.25 40.1264 89.25 40.5505V43.7491C89.25 44.1732 89.0821 44.58 88.7832 44.8799C88.4843 45.1798 88.0789 45.3483 87.6562 45.3483H84.4688C84.0461 45.3483 83.6407 45.1798 83.3418 44.8799C83.0429 44.58 82.875 44.1732 82.875 43.7491V40.5505ZM82.875 27.7564C82.875 27.3323 83.0429 26.9255 83.3418 26.6256C83.6407 26.3256 84.0461 26.1572 84.4688 26.1572H87.6562C88.0789 26.1572 88.4843 26.3256 88.7832 26.6256C89.0821 26.9255 89.25 27.3323 89.25 27.7564V30.9549C89.25 31.3791 89.0821 31.7859 88.7832 32.0858C88.4843 32.3857 88.0789 32.5542 87.6562 32.5542H84.4688C84.0461 32.5542 83.6407 32.3857 83.3418 32.0858C83.0429 31.7859 82.875 31.3791 82.875 30.9549V27.7564ZM51 27.7564C51 27.3323 51.1679 26.9255 51.4668 26.6256C51.7657 26.3256 52.1711 26.1572 52.5938 26.1572H55.7812C56.2039 26.1572 56.6093 26.3256 56.9082 26.6256C57.2071 26.9255 57.375 27.3323 57.375 27.7564V30.9549C57.375 31.3791 57.2071 31.7859 56.9082 32.0858C56.6093 32.3857 56.2039 32.5542 55.7812 32.5542H52.5938C52.1711 32.5542 51.7657 32.3857 51.4668 32.0858C51.1679 31.7859 51 31.3791 51 30.9549V27.7564ZM63.75 27.7564C63.75 27.3323 63.9179 26.9255 64.2168 26.6256C64.5157 26.3256 64.9211 26.1572 65.3438 26.1572H74.9062C75.3289 26.1572 75.7343 26.3256 76.0332 26.6256C76.3321 26.9255 76.5 27.3323 76.5 27.7564V30.9549C76.5 31.3791 76.3321 31.7859 76.0332 32.0858C75.7343 32.3857 75.3289 32.5542 74.9062 32.5542H65.3438C64.9211 32.5542 64.5157 32.3857 64.2168 32.0858C63.9179 31.7859 63.75 31.3791 63.75 30.9549V27.7564ZM70.125 40.5505C70.125 40.1264 70.2929 39.7196 70.5918 39.4197C70.8907 39.1198 71.2961 38.9513 71.7188 38.9513H74.9062C75.3289 38.9513 75.7343 39.1198 76.0332 39.4197C76.3321 39.7196 76.5 40.1264 76.5 40.5505V43.7491C76.5 44.1732 76.3321 44.58 76.0332 44.8799C75.7343 45.1798 75.3289 45.3483 74.9062 45.3483H71.7188C71.2961 45.3483 70.8907 45.1798 70.5918 44.8799C70.2929 44.58 70.125 44.1732 70.125 43.7491V40.5505ZM38.25 27.7564C38.25 27.3323 38.4179 26.9255 38.7168 26.6256C39.0157 26.3256 39.4211 26.1572 39.8438 26.1572H43.0312C43.4539 26.1572 43.8593 26.3256 44.1582 26.6256C44.4571 26.9255 44.625 27.3323 44.625 27.7564V30.9549C44.625 31.3791 44.4571 31.7859 44.1582 32.0858C43.8593 32.3857 43.4539 32.5542 43.0312 32.5542H39.8438C39.4211 32.5542 39.0157 32.3857 38.7168 32.0858C38.4179 31.7859 38.25 31.3791 38.25 30.9549V27.7564ZM25.5 27.7564C25.5 27.3323 25.6679 26.9255 25.9668 26.6256C26.2657 26.3256 26.6711 26.1572 27.0938 26.1572H30.2812C30.7039 26.1572 31.1093 26.3256 31.4082 26.6256C31.7071 26.9255 31.875 27.3323 31.875 27.7564V30.9549C31.875 31.3791 31.7071 31.7859 31.4082 32.0858C31.1093 32.3857 30.7039 32.5542 30.2812 32.5542H27.0938C26.6711 32.5542 26.2657 32.3857 25.9668 32.0858C25.6679 31.7859 25.5 31.3791 25.5 30.9549V27.7564ZM12.75 27.7564C12.75 27.3323 12.9179 26.9255 13.2168 26.6256C13.5157 26.3256 13.9211 26.1572 14.3438 26.1572H17.5312C17.9539 26.1572 18.3593 26.3256 18.6582 26.6256C18.9571 26.9255 19.125 27.3323 19.125 27.7564V30.9549C19.125 31.3791 18.9571 31.7859 18.6582 32.0858C18.3593 32.3857 17.9539 32.5542 17.5312 32.5542H14.3438C13.9211 32.5542 13.5157 32.3857 13.2168 32.0858C12.9179 31.7859 12.75 31.3791 12.75 30.9549V27.7564ZM82.875 14.9623C82.875 14.5382 83.0429 14.1314 83.3418 13.8314C83.6407 13.5315 84.0461 13.363 84.4688 13.363H87.6562C88.0789 13.363 88.4843 13.5315 88.7832 13.8314C89.0821 14.1314 89.25 14.5382 89.25 14.9623V18.1608C89.25 18.585 89.0821 18.9918 88.7832 19.2917C88.4843 19.5916 88.0789 19.7601 87.6562 19.7601H84.4688C84.0461 19.7601 83.6407 19.5916 83.3418 19.2917C83.0429 18.9918 82.875 18.585 82.875 18.1608V14.9623ZM70.125 14.9623C70.125 14.5382 70.2929 14.1314 70.5918 13.8314C70.8907 13.5315 71.2961 13.363 71.7188 13.363H74.9062C75.3289 13.363 75.7343 13.5315 76.0332 13.8314C76.3321 14.1314 76.5 14.5382 76.5 14.9623V18.1608C76.5 18.585 76.3321 18.9918 76.0332 19.2917C75.7343 19.5916 75.3289 19.7601 74.9062 19.7601H71.7188C71.2961 19.7601 70.8907 19.5916 70.5918 19.2917C70.2929 18.9918 70.125 18.585 70.125 18.1608V14.9623ZM57.375 14.9623C57.375 14.5382 57.5429 14.1314 57.8418 13.8314C58.1407 13.5315 58.5461 13.363 58.9688 13.363H62.1562C62.5789 13.363 62.9843 13.5315 63.2832 13.8314C63.5821 14.1314 63.75 14.5382 63.75 14.9623V18.1608C63.75 18.585 63.5821 18.9918 63.2832 19.2917C62.9843 19.5916 62.5789 19.7601 62.1562 19.7601H58.9688C58.5461 19.7601 58.1407 19.5916 57.8418 19.2917C57.5429 18.9918 57.375 18.585 57.375 18.1608V14.9623ZM44.625 14.9623C44.625 14.5382 44.7929 14.1314 45.0918 13.8314C45.3907 13.5315 45.7961 13.363 46.2188 13.363H49.4062C49.8289 13.363 50.2343 13.5315 50.5332 13.8314C50.8321 14.1314 51 14.5382 51 14.9623V18.1608C51 18.585 50.8321 18.9918 50.5332 19.2917C50.2343 19.5916 49.8289 19.7601 49.4062 19.7601H46.2188C45.7961 19.7601 45.3907 19.5916 45.0918 19.2917C44.7929 18.9918 44.625 18.585 44.625 18.1608V14.9623ZM31.875 14.9623C31.875 14.5382 32.0429 14.1314 32.3418 13.8314C32.6407 13.5315 33.0461 13.363 33.4688 13.363H36.6562C37.0789 13.363 37.4843 13.5315 37.7832 13.8314C38.0821 14.1314 38.25 14.5382 38.25 14.9623V18.1608C38.25 18.585 38.0821 18.9918 37.7832 19.2917C37.4843 19.5916 37.0789 19.7601 36.6562 19.7601H33.4688C33.0461 19.7601 32.6407 19.5916 32.3418 19.2917C32.0429 18.9918 31.875 18.585 31.875 18.1608V14.9623ZM12.75 14.9623C12.75 14.5382 12.9179 14.1314 13.2168 13.8314C13.5157 13.5315 13.9211 13.363 14.3438 13.363H23.9062C24.3289 13.363 24.7343 13.5315 25.0332 13.8314C25.3321 14.1314 25.5 14.5382 25.5 14.9623V18.1608C25.5 18.585 25.3321 18.9918 25.0332 19.2917C24.7343 19.5916 24.3289 19.7601 23.9062 19.7601H14.3438C13.9211 19.7601 13.5157 19.5916 13.2168 19.2917C12.9179 18.9918 12.75 18.585 12.75 18.1608V14.9623ZM12.75 40.5505C12.75 40.1264 12.9179 39.7196 13.2168 39.4197C13.5157 39.1198 13.9211 38.9513 14.3438 38.9513H17.5312C17.9539 38.9513 18.3593 39.1198 18.6582 39.4197C18.9571 39.7196 19.125 40.1264 19.125 40.5505V43.7491C19.125 44.1732 18.9571 44.58 18.6582 44.8799C18.3593 45.1798 17.9539 45.3483 17.5312 45.3483H14.3438C13.9211 45.3483 13.5157 45.1798 13.2168 44.8799C12.9179 44.58 12.75 44.1732 12.75 43.7491V40.5505ZM25.5 40.5505C25.5 40.1264 25.6679 39.7196 25.9668 39.4197C26.2657 39.1198 26.6711 38.9513 27.0938 38.9513H62.1562C62.5789 38.9513 62.9843 39.1198 63.2832 39.4197C63.5821 39.7196 63.75 40.1264 63.75 40.5505V43.7491C63.75 44.1732 63.5821 44.58 63.2832 44.8799C62.9843 45.1798 62.5789 45.3483 62.1562 45.3483H27.0938C26.6711 45.3483 26.2657 45.1798 25.9668 44.8799C25.6679 44.58 25.5 44.1732 25.5 43.7491V40.5505Z" fill="#BFFF00"/>
</g>
<defs>
<clipPath id="clip0_101_104">
<rect width="102" height="58" fill="white"/>
</clipPath>
</defs>
</svg>
